<svg xmlns="http://www.w3.org/2000/svg" width="234" height="149.463" viewBox="0 0 234 149.463">
  <g id="Agrupar_268" data-name="Agrupar 268" transform="translate(-393 -1415)">
    <g id="Agrupar_110" data-name="Agrupar 110" transform="translate(422.27 1406.689)" opacity="0.5">
      <path id="Caminho_152" data-name="Caminho 152" d="M30.4,16.8H19.116a5.433,5.433,0,0,0,0,10.865H30.4a5.433,5.433,0,0,0,0-10.865Z" transform="translate(12.224 17.506)" fill="#db4a61"/>
      <path id="Caminho_153" data-name="Caminho 153" d="M49.325,29.78H60.611a5.433,5.433,0,1,0,0-10.865H49.325a5.433,5.433,0,1,0,0,10.865Z" transform="translate(137.278 26.258)" fill="#db4a61"/>
      <path id="Caminho_154" data-name="Caminho 154" d="M46.762,25.556h2.924a5.435,5.435,0,0,0,0-10.87H46.762a5.435,5.435,0,0,0,0,10.87Z" transform="translate(126.668 8.751)" fill="#db4a61"/>
      <path id="Caminho_155" data-name="Caminho 155" d="M54.154,35.634h-2.93a5.433,5.433,0,0,0,0,10.865h2.93a5.433,5.433,0,0,0,0-10.865Z" transform="translate(145.143 95.468)" fill="#db4a61"/>
      <path id="Caminho_156" data-name="Caminho 156" d="M41.329,28.577a5.431,5.431,0,0,0,5.433,5.433h16.1a5.433,5.433,0,1,0,0-10.865h-16.1A5.431,5.431,0,0,0,41.329,28.577Z" transform="translate(126.668 43.764)" fill="#db4a61"/>
      <path id="Caminho_157" data-name="Caminho 157" d="M46.318,42.467H73.08a5.433,5.433,0,1,0,0-10.865H46.318a5.433,5.433,0,1,0,0,10.865Z" transform="translate(124.81 78.777)" fill="#db4a61"/>
      <path id="Caminho_158" data-name="Caminho 158" d="M16.163,23.437H47.026a5.433,5.433,0,1,0,0-10.865H16.163a5.433,5.433,0,1,0,0,10.865Z" transform="translate(0 0)" fill="#db4a61"/>
      <path id="Caminho_159" data-name="Caminho 159" d="M67,26.49a5.435,5.435,0,0,0-5.438-5.433h-45.4a5.433,5.433,0,1,0,0,10.865h45.4A5.435,5.435,0,0,0,67,26.49Z" transform="translate(0 35.125)" fill="#db4a61"/>
      <path id="Caminho_160" data-name="Caminho 160" d="M47.363,29.487h-23.6a5.435,5.435,0,0,0,0,10.87h23.6a5.435,5.435,0,0,0,0-10.87Z" transform="translate(31.478 70.022)" fill="#db4a61"/>
      <path id="Caminho_161" data-name="Caminho 161" d="M56.924,25.258H21.811a5.435,5.435,0,0,0,0,10.87H56.924a5.435,5.435,0,0,0,0-10.87Z" transform="translate(23.381 52.515)" fill="#db4a61"/>
      <path id="Caminho_162" data-name="Caminho 162" d="M17.569,25.258a5.435,5.435,0,0,0,0,10.87h6.039a5.435,5.435,0,0,0,0-10.87Z" transform="translate(5.82 52.515)" fill="#db4a61"/>
      <path id="Caminho_163" data-name="Caminho 163" d="M36.333,37.945H17.271a5.435,5.435,0,0,0,0,10.87H36.333a5.435,5.435,0,0,0,0-10.87Z" transform="translate(4.587 105.035)" fill="#db4a61"/>
      <path id="Caminho_164" data-name="Caminho 164" d="M26.686,23.437H51.469a5.435,5.435,0,0,1,0,10.87h59.023a5.435,5.435,0,0,0,5.433-5.438h0a5.431,5.431,0,0,0-5.433-5.433h-8.028c-3.279,0-3.433-3.012-3.433-5.381L99.036,18A5.435,5.435,0,0,0,93.6,12.572H26.686a5.433,5.433,0,1,0,0,10.865Z" transform="translate(43.541 0)" fill="#db4a61"/>
      <path id="Caminho_165" data-name="Caminho 165" d="M141.221,46.7H128.855c-3.3,0-3.438-3.058-3.438-5.433a5.431,5.431,0,0,0-5.433-5.433H43.666c3.937,0,7.134,2.431,7.134,5.433S47.6,46.7,43.666,46.7H24.645a5.441,5.441,0,1,0,0,10.87H141.221a5.435,5.435,0,0,0,5.433-5.438h0A5.431,5.431,0,0,0,141.221,46.7Z" transform="translate(34.048 96.283)" fill="#db4a61"/>
      <path id="Caminho_166" data-name="Caminho 166" d="M139.06,67.818h0a5.431,5.431,0,0,0-5.433-5.433H109.718c-3.3,0-3.438-3.058-3.438-5.433h0a5.435,5.435,0,0,0-5.433-5.438H88.512a5.433,5.433,0,1,1,0-10.865h12.335a5.431,5.431,0,0,0,5.433-5.433c0-2.38.134-5.438,3.438-5.438h8.434a5.434,5.434,0,0,0,5.433-5.433h0a5.434,5.434,0,0,0-5.433-5.433H62.058a5.222,5.222,0,0,1,4.985,5.433,5.222,5.222,0,0,1-4.985,5.433H30.347c-3.736,0-6.769,2.436-6.769,5.438s3.032,5.433,6.769,5.433H49.379a5.435,5.435,0,0,1,0,10.865H43.134a5.438,5.438,0,0,0,0,10.87H69.382c3.665,0,6.635,2.431,6.635,5.433s-2.971,5.433-6.635,5.433H43.561a5.441,5.441,0,1,0,0,10.87h56.762a5.435,5.435,0,0,1,0-10.87h33.3A5.431,5.431,0,0,0,139.06,67.818Z" transform="translate(53.186 26.258)" fill="#db4a61"/>
      <path id="Caminho_167" data-name="Caminho 167" d="M25.076,27.666h86.083a5.433,5.433,0,1,1,0-10.865H25.076a5.433,5.433,0,1,0,0,10.865Z" transform="translate(36.896 17.506)" fill="#db4a61"/>
      <path id="Caminho_168" data-name="Caminho 168" d="M117.193,42.467h14.175a5.433,5.433,0,0,0,0-10.865H86.721c3.356,0,6.085,2.431,6.085,5.433s-2.729,5.433-6.085,5.433H22.28c-3.356,0-6.075,2.436-6.075,5.433s2.719,5.438,6.075,5.438h94.913a5.435,5.435,0,0,1,0-10.87Z" transform="translate(22.664 78.777)" fill="#db4a61"/>
    </g>
    <g id="noun_Browser_255065" transform="translate(382.46 1412)">
      <g id="Agrupar_59" data-name="Agrupar 59" transform="translate(10.54 3)">
        <g id="Agrupar_58" data-name="Agrupar 58">
          <g id="Agrupar_57" data-name="Agrupar 57">
            <path id="Caminho_50" data-name="Caminho 50" d="M0,3.249V146.214a3.249,3.249,0,0,0,3.249,3.249H159.211a3.25,3.25,0,0,0,3.249-3.249V3.249A3.249,3.249,0,0,0,159.211,0H3.249A3.249,3.249,0,0,0,0,3.249ZM6.5,6.5H155.961v19.5H6.5Zm0,25.994H155.961V142.965H6.5Zm9.748-13A3.249,3.249,0,1,0,13,16.246,3.249,3.249,0,0,0,16.246,19.5Zm13,0a3.249,3.249,0,1,0-3.249-3.249A3.249,3.249,0,0,0,29.243,19.5Zm13,0a3.249,3.249,0,1,0-3.249-3.249A3.249,3.249,0,0,0,42.24,19.5Z" fill="#d11151" fill-rule="evenodd"/>
            <path id="Caminho_51" data-name="Caminho 51" d="M37.243,67.486A29.243,29.243,0,1,0,8,38.243,29.243,29.243,0,0,0,37.243,67.486Zm0-6.5A22.744,22.744,0,1,0,14.5,38.243,22.744,22.744,0,0,0,37.243,60.987ZM23.57,27.689a10.559,10.559,0,0,0,0,14.934L34.943,54a3.249,3.249,0,0,0,4.6,0L50.911,42.623a10.563,10.563,0,0,0,0-14.934A10.4,10.4,0,0,0,37.24,26.638,10.392,10.392,0,0,0,23.57,27.689Zm10.915,5.318a3.249,3.249,0,0,0,5.509,0,4.062,4.062,0,1,1,6.32,5.021l-9.072,9.053-9.078-9.053a4.061,4.061,0,1,1,6.32-5.021Z" transform="translate(43.987 49.486)" fill="#d11151" fill-rule="evenodd"/>
          </g>
        </g>
      </g>
    </g>
  </g>
</svg>