<svg xmlns="http://www.w3.org/2000/svg" width="395.524" height="171.418" viewBox="0 0 395.524 171.418">
  <g id="Agrupar_269" data-name="Agrupar 269" transform="translate(-762.238 -1404)">
    <g id="Agrupar_120" data-name="Agrupar 120" transform="translate(695.103 1423.613)" opacity="0.5">
      <path id="Caminho_169" data-name="Caminho 169" d="M87.542,18.889a5.135,5.135,0,0,1,4.9,5.34,5.135,5.135,0,0,1-4.9,5.34H142.66a5.34,5.34,0,0,0,5.34-5.34h0a5.34,5.34,0,0,0-5.34-5.34Z" transform="translate(82.295 25.672)" fill="#f5ae14"/>
      <path id="Caminho_170" data-name="Caminho 170" d="M76.921,25.255a5.342,5.342,0,0,0,0,10.679H218.858a5.34,5.34,0,0,0,5.34-5.34h0a5.34,5.34,0,0,0-5.34-5.34Z" transform="translate(18.599 51.344)" fill="#f5ae14"/>
      <path id="Caminho_171" data-name="Caminho 171" d="M88.3,37.986a5.345,5.345,0,1,0,0,10.679h77.705a5.34,5.34,0,0,0,5.34-5.34h0a5.34,5.34,0,0,0-5.34-5.34Z" transform="translate(62.813 102.685)" fill="#f5ae14"/>
      <path id="Caminho_172" data-name="Caminho 172" d="M160.032,34.843a5.344,5.344,0,0,1,5.34-5.345H83.157a5.345,5.345,0,1,0,0,10.679h82.214A5.338,5.338,0,0,1,160.032,34.843Z" transform="translate(42.065 68.455)" fill="#f5ae14"/>
      <path id="Caminho_173" data-name="Caminho 173" d="M166.529,39.078a5.335,5.335,0,0,1,5.34-5.335H78.6c-3.3,0-5.969,2.386-5.969,5.335s2.672,5.34,5.969,5.34h93.271A5.34,5.34,0,0,1,166.529,39.078Z" transform="translate(22.156 85.574)" fill="#f5ae14"/>
      <path id="Caminho_174" data-name="Caminho 174" d="M161.328,22.107a5.34,5.34,0,0,1,5.34-5.34H81.419a5.34,5.34,0,0,0,0,10.679h85.249A5.34,5.34,0,0,1,161.328,22.107Z" transform="translate(36.069 17.115)" fill="#f5ae14"/>
      <g id="Agrupar_111" data-name="Agrupar 111" transform="translate(77.804 33.882)">
        <path id="Caminho_175" data-name="Caminho 175" d="M89.929,27.446H74.595a5.34,5.34,0,0,1-5.34-5.34h0a5.34,5.34,0,0,1,5.34-5.34H89.929a5.34,5.34,0,0,1,5.34,5.34h0A5.34,5.34,0,0,1,89.929,27.446Z" transform="translate(-69.255 -16.767)" fill="#f5ae14"/>
      </g>
      <g id="Agrupar_112" data-name="Agrupar 112" transform="translate(216.028 23.202)">
        <path id="Caminho_176" data-name="Caminho 176" d="M102.674,25.324h-.614a5.34,5.34,0,0,1-5.34-5.34h0a5.34,5.34,0,0,1,5.34-5.34h.614a5.34,5.34,0,0,1,5.34,5.34h0A5.34,5.34,0,0,1,102.674,25.324Z" transform="translate(-96.72 -14.645)" fill="#f5ae14"/>
      </g>
      <g id="Agrupar_113" data-name="Agrupar 113" transform="translate(244.216 129)">
        <path id="Caminho_177" data-name="Caminho 177" d="M119.714,46.346H107.661a5.343,5.343,0,0,1-5.34-5.34h0a5.343,5.343,0,0,1,5.34-5.34h12.053a5.34,5.34,0,0,1,5.34,5.34h0A5.34,5.34,0,0,1,119.714,46.346Z" transform="translate(-102.321 -35.667)" fill="#f5ae14"/>
      </g>
      <g id="Agrupar_114" data-name="Agrupar 114" transform="translate(249.052 65.92)">
        <path id="Caminho_178" data-name="Caminho 178" d="M112,33.812h-3.382a5.34,5.34,0,0,1-5.34-5.34h0a5.34,5.34,0,0,1,5.34-5.34H112a5.34,5.34,0,0,1,5.34,5.34h0A5.34,5.34,0,0,1,112,33.812Z" transform="translate(-103.282 -23.133)" fill="#f5ae14"/>
      </g>
      <g id="Agrupar_115" data-name="Agrupar 115" transform="translate(219.41 108.633)">
        <path id="Caminho_179" data-name="Caminho 179" d="M102.732,42.3h0a5.344,5.344,0,0,1-5.34-5.345h0a5.343,5.343,0,0,1,5.34-5.34h0a5.343,5.343,0,0,1,5.34,5.34h0A5.344,5.344,0,0,1,102.732,42.3Z" transform="translate(-97.392 -31.62)" fill="#f5ae14"/>
      </g>
      <g id="Agrupar_116" data-name="Agrupar 116" transform="translate(96.803 12.523)">
        <path id="Caminho_180" data-name="Caminho 180" d="M79.029,23.2H78.37a5.34,5.34,0,0,1-5.34-5.34h0a5.34,5.34,0,0,1,5.34-5.34h.659a5.34,5.34,0,0,1,5.34,5.34h0A5.34,5.34,0,0,1,79.029,23.2Z" transform="translate(-73.03 -12.523)" fill="#f5ae14"/>
      </g>
      <g id="Agrupar_117" data-name="Agrupar 117" transform="translate(67.135 55.377)">
        <path id="Caminho_181" data-name="Caminho 181" d="M117.085,31.717H72.475a5.34,5.34,0,0,1-5.34-5.34h0a5.34,5.34,0,0,1,5.34-5.34h44.61a5.34,5.34,0,0,1,5.34,5.34h0A5.34,5.34,0,0,1,117.085,31.717Z" transform="translate(-67.135 -21.038)" fill="#f5ae14"/>
      </g>
      <g id="Agrupar_118" data-name="Agrupar 118" transform="translate(104.926 140.671)">
        <path id="Caminho_182" data-name="Caminho 182" d="M98.715,48.665H79.984a5.34,5.34,0,0,1-5.34-5.34h0a5.343,5.343,0,0,1,5.34-5.34H98.715a5.343,5.343,0,0,1,5.34,5.34h0A5.34,5.34,0,0,1,98.715,48.665Z" transform="translate(-74.644 -37.986)" fill="#f5ae14"/>
      </g>
      <g id="Agrupar_119" data-name="Agrupar 119" transform="translate(120.26 12.523)">
        <path id="Caminho_183" data-name="Caminho 183" d="M83.031,12.523a5.34,5.34,0,0,0,0,10.679h61.636a5.34,5.34,0,0,0,5.34-5.34h0a5.34,5.34,0,0,0-5.34-5.34Z" transform="translate(-77.691 -12.523)" fill="#f5ae14"/>
      </g>
      <path id="Caminho_184" data-name="Caminho 184" d="M86.682,21.011c-3.674,0-6.653,2.391-6.653,5.34s2.979,5.34,6.653,5.34h69.275a5.34,5.34,0,0,0,5.34-5.34h0a5.34,5.34,0,0,0-5.34-5.34Z" transform="translate(51.998 34.23)" fill="#f5ae14"/>
      <path id="Caminho_185" data-name="Caminho 185" d="M83.591,14.645a5.34,5.34,0,0,1,0,10.679h53.885a5.338,5.338,0,0,0,5.335-5.34h0a5.338,5.338,0,0,0-5.335-5.34Z" transform="translate(51.306 8.557)" fill="#f5ae14"/>
      <path id="Caminho_186" data-name="Caminho 186" d="M78.918,27.377c3.6,0,6.522,2.391,6.522,5.34s-2.919,5.335-6.522,5.335H220.04a5.335,5.335,0,0,0,5.34-5.335h0a5.34,5.34,0,0,0-5.34-5.34Z" transform="translate(47.517 59.902)" fill="#f5ae14"/>
      <path id="Caminho_187" data-name="Caminho 187" d="M81.618,31.62c3.3,0,5.979,2.4,5.979,5.34S84.919,42.3,81.618,42.3h67.932a5.344,5.344,0,0,0,5.34-5.345h0a5.343,5.343,0,0,0-5.34-5.34Z" transform="translate(58.406 77.013)" fill="#f5ae14"/>
      <path id="Caminho_188" data-name="Caminho 188" d="M84.876,35.864c3.87,0,7.011,2.4,7.011,5.34s-3.14,5.34-7.011,5.34h51.535a5.34,5.34,0,0,0,5.34-5.34h0a5.343,5.343,0,0,0-5.34-5.34Z" transform="translate(71.544 94.127)" fill="#f5ae14"/>
      <path id="Caminho_189" data-name="Caminho 189" d="M123.521,33.812a5.34,5.34,0,0,1,0-10.679H85.066a5.342,5.342,0,0,1,0,10.679Z" transform="translate(72.311 42.787)" fill="#f5ae14"/>
      <path id="Caminho_190" data-name="Caminho 190" d="M101.387,27.71c0-2.335.131-5.34,3.377-5.34l-1.933-1.7-7.947.624.689,3.936Z" transform="translate(111.908 32.871)" fill="#f5ae14"/>
      <path id="Caminho_191" data-name="Caminho 191" d="M97.269,13.584c0,2.335.131,5.34,3.377,5.34l-1.933,1.691L90.767,20l.689-3.941Z" transform="translate(95.301 4.279)" fill="#f5ae14"/>
      <path id="Caminho_192" data-name="Caminho 192" d="M107.249,26.316c0,2.335.131,5.34,3.377,5.34l-1.933,1.691-7.947-.619.695-3.941Z" transform="translate(135.547 55.623)" fill="#f5ae14"/>
      <path id="Caminho_193" data-name="Caminho 193" d="M101.387,36.925c0,2.34.131,5.34,3.377,5.34l-1.933,1.7-7.947-.624.689-3.936Z" transform="translate(111.908 98.406)" fill="#f5ae14"/>
    </g>
    <g id="Agrupar_121" data-name="Agrupar 121" transform="translate(1224.897 1587.487) rotate(180)" opacity="0.5">
      <path id="Caminho_169-2" data-name="Caminho 169" d="M87.542,18.889a5.135,5.135,0,0,1,4.9,5.34,5.135,5.135,0,0,1-4.9,5.34H142.66a5.34,5.34,0,0,0,5.34-5.34h0a5.34,5.34,0,0,0-5.34-5.34Z" transform="translate(82.295 25.672)" fill="#f5ae14"/>
      <path id="Caminho_170-2" data-name="Caminho 170" d="M76.921,25.255a5.342,5.342,0,0,0,0,10.679H218.858a5.34,5.34,0,0,0,5.34-5.34h0a5.34,5.34,0,0,0-5.34-5.34Z" transform="translate(18.599 51.344)" fill="#f5ae14"/>
      <path id="Caminho_171-2" data-name="Caminho 171" d="M88.3,37.986a5.345,5.345,0,1,0,0,10.679h77.705a5.34,5.34,0,0,0,5.34-5.34h0a5.34,5.34,0,0,0-5.34-5.34Z" transform="translate(62.813 102.685)" fill="#f5ae14"/>
      <path id="Caminho_172-2" data-name="Caminho 172" d="M160.032,34.843a5.344,5.344,0,0,1,5.34-5.345H83.157a5.345,5.345,0,1,0,0,10.679h82.214A5.338,5.338,0,0,1,160.032,34.843Z" transform="translate(42.065 68.455)" fill="#f5ae14"/>
      <path id="Caminho_173-2" data-name="Caminho 173" d="M166.529,39.078a5.335,5.335,0,0,1,5.34-5.335H78.6c-3.3,0-5.969,2.386-5.969,5.335s2.672,5.34,5.969,5.34h93.271A5.34,5.34,0,0,1,166.529,39.078Z" transform="translate(22.156 85.574)" fill="#f5ae14"/>
      <path id="Caminho_174-2" data-name="Caminho 174" d="M161.328,22.107a5.34,5.34,0,0,1,5.34-5.34H81.419a5.34,5.34,0,0,0,0,10.679h85.249A5.34,5.34,0,0,1,161.328,22.107Z" transform="translate(36.069 17.115)" fill="#f5ae14"/>
      <g id="Agrupar_111-2" data-name="Agrupar 111" transform="translate(77.804 33.882)">
        <path id="Caminho_175-2" data-name="Caminho 175" d="M89.929,27.446H74.595a5.34,5.34,0,0,1-5.34-5.34h0a5.34,5.34,0,0,1,5.34-5.34H89.929a5.34,5.34,0,0,1,5.34,5.34h0A5.34,5.34,0,0,1,89.929,27.446Z" transform="translate(-69.255 -16.767)" fill="#f5ae14"/>
      </g>
      <g id="Agrupar_112-2" data-name="Agrupar 112" transform="translate(216.028 23.202)">
        <path id="Caminho_176-2" data-name="Caminho 176" d="M102.674,25.324h-.614a5.34,5.34,0,0,1-5.34-5.34h0a5.34,5.34,0,0,1,5.34-5.34h.614a5.34,5.34,0,0,1,5.34,5.34h0A5.34,5.34,0,0,1,102.674,25.324Z" transform="translate(-96.72 -14.645)" fill="#f5ae14"/>
      </g>
      <g id="Agrupar_113-2" data-name="Agrupar 113" transform="translate(244.216 129)">
        <path id="Caminho_177-2" data-name="Caminho 177" d="M119.714,46.346H107.661a5.343,5.343,0,0,1-5.34-5.34h0a5.343,5.343,0,0,1,5.34-5.34h12.053a5.34,5.34,0,0,1,5.34,5.34h0A5.34,5.34,0,0,1,119.714,46.346Z" transform="translate(-102.321 -35.667)" fill="#f5ae14"/>
      </g>
      <g id="Agrupar_114-2" data-name="Agrupar 114" transform="translate(249.052 65.92)">
        <path id="Caminho_178-2" data-name="Caminho 178" d="M112,33.812h-3.382a5.34,5.34,0,0,1-5.34-5.34h0a5.34,5.34,0,0,1,5.34-5.34H112a5.34,5.34,0,0,1,5.34,5.34h0A5.34,5.34,0,0,1,112,33.812Z" transform="translate(-103.282 -23.133)" fill="#f5ae14"/>
      </g>
      <g id="Agrupar_115-2" data-name="Agrupar 115" transform="translate(219.41 108.633)">
        <path id="Caminho_179-2" data-name="Caminho 179" d="M102.732,42.3h0a5.344,5.344,0,0,1-5.34-5.345h0a5.343,5.343,0,0,1,5.34-5.34h0a5.343,5.343,0,0,1,5.34,5.34h0A5.344,5.344,0,0,1,102.732,42.3Z" transform="translate(-97.392 -31.62)" fill="#f5ae14"/>
      </g>
      <g id="Agrupar_116-2" data-name="Agrupar 116" transform="translate(96.803 12.523)">
        <path id="Caminho_180-2" data-name="Caminho 180" d="M79.029,23.2H78.37a5.34,5.34,0,0,1-5.34-5.34h0a5.34,5.34,0,0,1,5.34-5.34h.659a5.34,5.34,0,0,1,5.34,5.34h0A5.34,5.34,0,0,1,79.029,23.2Z" transform="translate(-73.03 -12.523)" fill="#f5ae14"/>
      </g>
      <g id="Agrupar_117-2" data-name="Agrupar 117" transform="translate(67.135 55.377)">
        <path id="Caminho_181-2" data-name="Caminho 181" d="M117.085,31.717H72.475a5.34,5.34,0,0,1-5.34-5.34h0a5.34,5.34,0,0,1,5.34-5.34h44.61a5.34,5.34,0,0,1,5.34,5.34h0A5.34,5.34,0,0,1,117.085,31.717Z" transform="translate(-67.135 -21.038)" fill="#f5ae14"/>
      </g>
      <g id="Agrupar_118-2" data-name="Agrupar 118" transform="translate(104.926 140.671)">
        <path id="Caminho_182-2" data-name="Caminho 182" d="M98.715,48.665H79.984a5.34,5.34,0,0,1-5.34-5.34h0a5.343,5.343,0,0,1,5.34-5.34H98.715a5.343,5.343,0,0,1,5.34,5.34h0A5.34,5.34,0,0,1,98.715,48.665Z" transform="translate(-74.644 -37.986)" fill="#f5ae14"/>
      </g>
      <g id="Agrupar_119-2" data-name="Agrupar 119" transform="translate(120.26 12.523)">
        <path id="Caminho_183-2" data-name="Caminho 183" d="M83.031,12.523a5.34,5.34,0,0,0,0,10.679h61.636a5.34,5.34,0,0,0,5.34-5.34h0a5.34,5.34,0,0,0-5.34-5.34Z" transform="translate(-77.691 -12.523)" fill="#f5ae14"/>
      </g>
      <path id="Caminho_184-2" data-name="Caminho 184" d="M86.682,21.011c-3.674,0-6.653,2.391-6.653,5.34s2.979,5.34,6.653,5.34h69.275a5.34,5.34,0,0,0,5.34-5.34h0a5.34,5.34,0,0,0-5.34-5.34Z" transform="translate(51.998 34.23)" fill="#f5ae14"/>
      <path id="Caminho_185-2" data-name="Caminho 185" d="M83.591,14.645a5.34,5.34,0,0,1,0,10.679h53.885a5.338,5.338,0,0,0,5.335-5.34h0a5.338,5.338,0,0,0-5.335-5.34Z" transform="translate(66.362 8.557)" fill="#f5ae14"/>
      <path id="Caminho_186-2" data-name="Caminho 186" d="M78.918,27.377c3.6,0,6.522,2.391,6.522,5.34s-2.919,5.335-6.522,5.335H220.04a5.335,5.335,0,0,0,5.34-5.335h0a5.34,5.34,0,0,0-5.34-5.34Z" transform="translate(47.517 59.902)" fill="#f5ae14"/>
      <path id="Caminho_187-2" data-name="Caminho 187" d="M81.618,31.62c3.3,0,5.979,2.4,5.979,5.34S84.919,42.3,81.618,42.3h67.932a5.344,5.344,0,0,0,5.34-5.345h0a5.343,5.343,0,0,0-5.34-5.34Z" transform="translate(58.406 77.013)" fill="#f5ae14"/>
      <path id="Caminho_188-2" data-name="Caminho 188" d="M84.876,35.864c3.87,0,7.011,2.4,7.011,5.34s-3.14,5.34-7.011,5.34h51.535a5.34,5.34,0,0,0,5.34-5.34h0a5.343,5.343,0,0,0-5.34-5.34Z" transform="translate(71.544 94.127)" fill="#f5ae14"/>
      <path id="Caminho_189-2" data-name="Caminho 189" d="M123.521,33.812a5.34,5.34,0,0,1,0-10.679H85.066a5.342,5.342,0,0,1,0,10.679Z" transform="translate(72.311 42.787)" fill="#f5ae14"/>
      <path id="Caminho_190-2" data-name="Caminho 190" d="M101.387,27.71c0-2.335.131-5.34,3.377-5.34l-1.933-1.7-7.947.624.689,3.936Z" transform="translate(111.908 32.871)" fill="#f5ae14"/>
      <path id="Caminho_191-2" data-name="Caminho 191" d="M97.269,13.584c0,2.335.131,5.34,3.377,5.34l-1.933,1.691L90.767,20l.689-3.941Z" transform="translate(95.301 4.279)" fill="#f5ae14"/>
      <path id="Caminho_192-2" data-name="Caminho 192" d="M107.249,26.316c0,2.335.131,5.34,3.377,5.34l-1.933,1.691-7.947-.619.695-3.941Z" transform="translate(135.547 55.623)" fill="#f5ae14"/>
      <path id="Caminho_193-2" data-name="Caminho 193" d="M101.387,36.925c0,2.34.131,5.34,3.377,5.34l-1.933,1.7-7.947-.624.689-3.936Z" transform="translate(111.908 98.406)" fill="#f5ae14"/>
    </g>
    <g id="noun_Popcorn_1674764" transform="translate(876.18 1399)">
      <g id="Agrupar_60" data-name="Agrupar 60" transform="translate(12.82 5)">
        <path id="Caminho_52" data-name="Caminho 52" d="M36.606,79.98a3.808,3.808,0,0,0-3.526,4.074l.543,7.544a3.808,3.808,0,0,0,3.8,3.535c.091,0,.185,0,.278-.01a3.809,3.809,0,0,0,3.526-4.074l-.543-7.544A3.826,3.826,0,0,0,36.606,79.98Z" transform="translate(5.5 62.825)" fill="#eb7733"/>
        <path id="Caminho_53" data-name="Caminho 53" d="M65.755,47.051a3.809,3.809,0,0,0,3.525,4.074c.093.006.185.01.278.01a3.81,3.81,0,0,0,3.8-3.535l.634-8.817-7.6-.547Z" transform="translate(35.058 25.067)" fill="#eb7733"/>
        <path id="Caminho_54" data-name="Caminho 54" d="M101.464,55.679a3.844,3.844,0,0,0-4.072,3.527l-.716,9.952A34.337,34.337,0,0,0,82.966,59.8l.461-19.517a3.809,3.809,0,0,0-7.617-.179L75.4,57.7a42.636,42.636,0,0,0-14.489-.006L60.488,40.1a3.759,3.759,0,0,0-3.9-3.716,3.809,3.809,0,0,0-3.718,3.9l.465,19.477c-1.074.408-2.131.848-3.152,1.345a3.81,3.81,0,0,0,3.341,6.849,33.522,33.522,0,0,1,14.63-3.261c15.047,0,27.29,9.325,27.29,20.785S83.2,106.261,68.154,106.261s-27.29-9.325-27.29-20.784a17.573,17.573,0,0,1,5.325-12.3,3.809,3.809,0,0,0-5.472-5.3c-.383.394-.726.808-1.08,1.213l-2.1-29.177-7.6.547,5.251,72.969a3.808,3.808,0,0,0,3.8,3.535c.091,0,.185,0,.278-.01a3.808,3.808,0,0,0,3.526-4.074l-.611-8.5a35.72,35.72,0,0,0,12.4,7.259l.467,19.212a3.809,3.809,0,0,0,3.807,3.716c.032,0,.063,0,.093,0a3.808,3.808,0,0,0,3.716-3.9l-.417-17.229a39.966,39.966,0,0,0,11.828,0l-.413,17.231a3.809,3.809,0,0,0,3.718,3.9c.03,0,.063,0,.093,0a3.811,3.811,0,0,0,3.807-3.718l.461-19.212a35.729,35.729,0,0,0,12.407-7.268l-1.886,26.117,7.6.547,5.131-71.283A3.808,3.808,0,0,0,101.464,55.679Z" transform="translate(2.667 23.387)" fill="#eb7733"/>
        <path id="Caminho_55" data-name="Caminho 55" d="M150.64,51.306h-6.08a17.6,17.6,0,0,0-17.094-17.09,19.716,19.716,0,0,0-25.816-17.641,19.815,19.815,0,0,0-36.036-.01A19.734,19.734,0,0,0,39.8,34.214,17.6,17.6,0,0,0,22.709,51.3h-6.08a3.809,3.809,0,0,0,0,7.619h4.657l13,108.477a10.243,10.243,0,0,0,10.163,9.019h78.4a10.24,10.24,0,0,0,10.163-9.019L145.985,58.924h4.657a3.809,3.809,0,1,0,0-7.619Zm-25.2,115.187a2.62,2.62,0,0,1-2.6,2.307h-78.4a2.62,2.62,0,0,1-2.6-2.307L28.96,58.923H90.935a3.809,3.809,0,0,0,0-7.619H30.352a9.966,9.966,0,0,1,9.929-9.495,9.277,9.277,0,0,1,2.587.354,9.923,9.923,0,0,1,4.487,2.587,3.809,3.809,0,1,0,5.4-5.379,17.541,17.541,0,0,0-5.381-3.663c0-.09-.011-.175-.011-.265A12.18,12.18,0,0,1,63.84,24c-.011.276-.04.547-.04.829a19.727,19.727,0,0,0,1.718,8.087,3.809,3.809,0,1,0,6.956-3.106,12.136,12.136,0,0,1-1.057-4.981,11.353,11.353,0,0,1,.236-2.362,12.207,12.207,0,0,1,23.3-2.207,19.942,19.942,0,0,0-3.432,3.7,3.81,3.81,0,1,0,6.221,4.4,12.212,12.212,0,0,1,22.174,7.08c0,.1-.011.187-.013.282a17.541,17.541,0,0,0-4.783,3.1,3.81,3.81,0,1,0,5.152,5.613,9.965,9.965,0,0,1,4.213-2.289,9.074,9.074,0,0,1,2.507-.333,9.967,9.967,0,0,1,9.929,9.495h-35.03a3.809,3.809,0,0,0,0,7.619H138.31Z" transform="translate(-12.82 -5)" fill="#eb7733"/>
      </g>
    </g>
  </g>
</svg>