<svg xmlns="http://www.w3.org/2000/svg" width="222.839" height="158.394" viewBox="0 0 222.839 158.394">
  <g id="Agrupar_270" data-name="Agrupar 270" transform="translate(-1357 -1413)">
    <g id="Agrupar_150" data-name="Agrupar 150" transform="translate(1372.18 1367.997)" opacity="0.5">
      <g id="Agrupar_134" data-name="Agrupar 134" transform="translate(9.82 51.003)">
        <g id="Agrupar_121" data-name="Agrupar 121" transform="translate(140.595 44.819)">
          <path id="Caminho_194" data-name="Caminho 194" d="M57.262,70.7H47.949a4.48,4.48,0,0,1-4.479-4.483h0a4.483,4.483,0,0,1,4.479-4.483h9.313a4.483,4.483,0,0,1,4.479,4.483h0A4.48,4.48,0,0,1,57.262,70.7Z" transform="translate(-43.47 -61.73)" fill="#004bff"/>
        </g>
        <path id="Caminho_195" data-name="Caminho 195" d="M30.454,61.73a4.5,4.5,0,0,1,0,8.966H76.723a4.484,4.484,0,0,0,4.483-4.483h0a4.486,4.486,0,0,0-4.483-4.483Z" transform="translate(55.758 -16.911)" fill="#004bff"/>
        <path id="Caminho_196" data-name="Caminho 196" d="M104.64,64.064a4.48,4.48,0,0,1,4.483-4.479H23.346a4.481,4.481,0,1,0,0,8.962h85.773A4.48,4.48,0,0,1,104.64,64.064Z" transform="translate(18.92 -23.728)" fill="#004bff"/>
        <g id="Agrupar_122" data-name="Agrupar 122" transform="translate(20.97 35.857)">
          <path id="Caminho_197" data-name="Caminho 197" d="M20.179,68.547h-.861a4.479,4.479,0,0,1-4.479-4.479h0a4.48,4.48,0,0,1,4.479-4.483h.861a4.481,4.481,0,0,1,4.483,4.483h0A4.48,4.48,0,0,1,20.179,68.547Z" transform="translate(-14.839 -59.585)" fill="#004bff"/>
        </g>
        <g id="Agrupar_123" data-name="Agrupar 123" transform="translate(186.458 26.891)">
          <path id="Caminho_198" data-name="Caminho 198" d="M61.345,66.405H58.93a4.484,4.484,0,0,1-4.483-4.483h0a4.481,4.481,0,0,1,4.483-4.483h2.415a4.484,4.484,0,0,1,4.483,4.483h0A4.486,4.486,0,0,1,61.345,66.405Z" transform="translate(-54.447 -57.439)" fill="#004bff"/>
        </g>
        <g id="Agrupar_124" data-name="Agrupar 124" transform="translate(148.65 115.701)">
          <path id="Caminho_199" data-name="Caminho 199" d="M52.292,87.661H49.881A4.484,4.484,0,0,1,45.4,83.178h0a4.481,4.481,0,0,1,4.483-4.483h2.411a4.481,4.481,0,0,1,4.483,4.483h0A4.484,4.484,0,0,1,52.292,87.661Z" transform="translate(-45.398 -78.695)" fill="#004bff"/>
        </g>
        <g id="Agrupar_125" data-name="Agrupar 125" transform="translate(129.727 62.747)">
          <path id="Caminho_200" data-name="Caminho 200" d="M77.219,74.987H45.348A4.48,4.48,0,0,1,40.869,70.5h0a4.483,4.483,0,0,1,4.479-4.483H77.219A4.484,4.484,0,0,1,81.7,70.5h0A4.481,4.481,0,0,1,77.219,74.987Z" transform="translate(-40.869 -66.021)" fill="#004bff"/>
        </g>
        <g id="Agrupar_126" data-name="Agrupar 126" transform="translate(127.826 98.608)">
          <path id="Caminho_201" data-name="Caminho 201" d="M66.974,83.566H44.9a4.481,4.481,0,0,1-4.483-4.483h0A4.48,4.48,0,0,1,44.9,74.6H66.974a4.479,4.479,0,0,1,4.479,4.479h0A4.48,4.48,0,0,1,66.974,83.566Z" transform="translate(-40.414 -74.604)" fill="#004bff"/>
        </g>
        <g id="Agrupar_127" data-name="Agrupar 127" transform="translate(0 17.928)">
          <path id="Caminho_202" data-name="Caminho 202" d="M39.761,64.256H14.3A4.481,4.481,0,0,1,9.82,59.773h0A4.48,4.48,0,0,1,14.3,55.294H39.761a4.483,4.483,0,0,1,4.483,4.479h0A4.484,4.484,0,0,1,39.761,64.256Z" transform="translate(-9.82 -55.294)" fill="#004bff"/>
        </g>
        <g id="Agrupar_128" data-name="Agrupar 128" transform="translate(0 53.902)">
          <path id="Caminho_203" data-name="Caminho 203" d="M51.752,72.866H14.3A4.481,4.481,0,0,1,9.82,68.383h0A4.48,4.48,0,0,1,14.3,63.9H51.752a4.479,4.479,0,0,1,4.479,4.479h0A4.48,4.48,0,0,1,51.752,72.866Z" transform="translate(-9.82 -63.904)" fill="#004bff"/>
        </g>
        <g id="Agrupar_129" data-name="Agrupar 129" transform="translate(4.696 125.499)">
          <path id="Caminho_204" data-name="Caminho 204" d="M31.15,90.006H15.427a4.481,4.481,0,0,1-4.483-4.483h0a4.484,4.484,0,0,1,4.483-4.483H31.15a4.484,4.484,0,0,1,4.483,4.483h0A4.481,4.481,0,0,1,31.15,90.006Z" transform="translate(-10.944 -81.04)" fill="#004bff"/>
        </g>
        <g id="Agrupar_130" data-name="Agrupar 130" transform="translate(44.593 17.928)">
          <path id="Caminho_205" data-name="Caminho 205" d="M24.976,55.294a4.481,4.481,0,1,0,0,8.962H136.909a4.48,4.48,0,0,0,4.479-4.483h0a4.479,4.479,0,0,0-4.479-4.479Z" transform="translate(-20.493 -55.294)" fill="#004bff"/>
        </g>
        <path id="Caminho_206" data-name="Caminho 206" d="M28.443,63.876c-3.083,0-5.586,2.006-5.586,4.483s2.5,4.479,5.586,4.479H86.595a4.48,4.48,0,0,0,4.483-4.479h0a4.481,4.481,0,0,0-4.483-4.483Z" transform="translate(31.614 -10.091)" fill="#004bff"/>
        <path id="Caminho_207" data-name="Caminho 207" d="M18.828,68.167a4.485,4.485,0,0,0,0,8.966h94.38a4.484,4.484,0,0,0,4.483-4.483h0a4.481,4.481,0,0,0-4.483-4.483Z" transform="translate(5 3.547)" fill="#004bff"/>
        <path id="Caminho_208" data-name="Caminho 208" d="M22.858,81.04a4.488,4.488,0,1,0,0,8.966h96.164a4.48,4.48,0,0,0,4.479-4.483h0a4.483,4.483,0,0,0-4.479-4.483Z" transform="translate(16.705 44.459)" fill="#004bff"/>
        <path id="Caminho_209" data-name="Caminho 209" d="M26.459,57.439a4.483,4.483,0,1,1,0,8.966H131.882a4.483,4.483,0,0,0,4.479-4.483h0a4.48,4.48,0,0,0-4.479-4.483Z" transform="translate(43.061 -30.548)" fill="#004bff"/>
        <path id="Caminho_210" data-name="Caminho 210" d="M31.9,70.313c3.021,0,5.473,2.005,5.473,4.479s-2.453,4.483-5.473,4.483h80.542a4.48,4.48,0,0,0,4.479-4.483h0a4.479,4.479,0,0,0-4.479-4.479Z" transform="translate(60.354 10.367)" fill="#004bff"/>
        <path id="Caminho_211" data-name="Caminho 211" d="M29.3,74.6a4.51,4.51,0,1,1,0,8.962h36.83a4.481,4.481,0,0,0,4.483-4.483h0A4.48,4.48,0,0,0,66.127,74.6Z" transform="translate(52.081 24.005)" fill="#004bff"/>
        <path id="Caminho_212" data-name="Caminho 212" d="M23.044,78.895c3.251,0,5.887,2.006,5.887,4.483s-2.636,4.479-5.887,4.479H86a4.48,4.48,0,0,0,4.483-4.479h0A4.481,4.481,0,0,0,86,78.895Z" transform="translate(32.208 37.642)" fill="#004bff"/>
        <path id="Caminho_213" data-name="Caminho 213" d="M60.23,74.987a4.481,4.481,0,0,1,0-8.962H70.413l0,0H27.95a4.485,4.485,0,0,1,0,8.966H60.23Z" transform="translate(47.8 -3.274)" fill="#004bff"/>
        <path id="Caminho_214" data-name="Caminho 214" d="M89.591,76.941a4.484,4.484,0,0,1,4.483-4.483H25.059a4.488,4.488,0,1,0,0,8.966H94.074A4.486,4.486,0,0,1,89.591,76.941Z" transform="translate(23.7 17.184)" fill="#004bff"/>
        <path id="Caminho_215" data-name="Caminho 215" d="M94.2,81.232a4.481,4.481,0,0,1,4.483-4.483h-78.3a4.511,4.511,0,1,0,0,8.966h78.3A4.481,4.481,0,0,1,94.2,81.232Z" transform="translate(7.835 30.822)" fill="#004bff"/>
        <path id="Caminho_216" data-name="Caminho 216" d="M43.336,69.44c0-1.964.109-4.483,2.833-4.483l-1.621-1.421-6.668.522.577,3.3Z" transform="translate(79.356 -11.171)" fill="#004bff"/>
        <path id="Caminho_217" data-name="Caminho 217" d="M53.578,56.366c0,1.964.109,4.483,2.837,4.483L54.789,62.27l-6.668-.518.581-3.309Z" transform="translate(111.906 -33.959)" fill="#004bff"/>
        <path id="Caminho_218" data-name="Caminho 218" d="M43.336,69.24c0,1.96.109,4.483,2.833,4.483l-1.621,1.421-6.668-.522.577-3.3Z" transform="translate(79.356 6.957)" fill="#004bff"/>
        <path id="Caminho_219" data-name="Caminho 219" d="M43.336,79.968c0,1.96.109,4.479,2.833,4.479l-1.621,1.425-6.668-.522.577-3.3Z" transform="translate(79.356 41.052)" fill="#004bff"/>
        <g id="Agrupar_131" data-name="Agrupar 131" transform="translate(68.848)">
          <path id="Caminho_220" data-name="Caminho 220" d="M72.212,59.965H30.777A4.48,4.48,0,0,1,26.3,55.482h0A4.479,4.479,0,0,1,30.777,51H72.212a4.48,4.48,0,0,1,4.483,4.479h0A4.481,4.481,0,0,1,72.212,59.965Z" transform="translate(-26.298 -51.003)" fill="#004bff"/>
        </g>
        <g id="Agrupar_132" data-name="Agrupar 132" transform="translate(66.604 143.432)">
          <path id="Caminho_221" data-name="Caminho 221" d="M73.918,94.294H30.244a4.484,4.484,0,0,1-4.483-4.483h0a4.483,4.483,0,0,1,4.483-4.479H73.918A4.48,4.48,0,0,1,78.4,89.811h0A4.481,4.481,0,0,1,73.918,94.294Z" transform="translate(-25.761 -85.332)" fill="#004bff"/>
        </g>
        <g id="Agrupar_133" data-name="Agrupar 133" transform="translate(52.231 143.432)">
          <path id="Caminho_222" data-name="Caminho 222" d="M26.8,94.294h0a4.481,4.481,0,0,1-4.483-4.483h0A4.48,4.48,0,0,1,26.8,85.332h0a4.483,4.483,0,0,1,4.483,4.479h0A4.484,4.484,0,0,1,26.8,94.294Z" transform="translate(-22.321 -85.332)" fill="#004bff"/>
        </g>
      </g>
    </g>
    <g id="noun_Controller_375544" transform="translate(-85.425 1735.6)">
      <path id="Caminho_56" data-name="Caminho 56" d="M57.166,103.11a16.178,16.178,0,1,0,16.178,16.178A16.2,16.2,0,0,0,57.166,103.11Zm0,24.267a7.926,7.926,0,0,1-7.924-7.924,8.034,8.034,0,0,1,7.924-7.924,7.926,7.926,0,0,1,7.924,7.924A8.034,8.034,0,0,1,57.166,127.378Zm60.421-7.924a16.178,16.178,0,1,0-16.178,16.178A16.2,16.2,0,0,0,117.587,119.454Zm-16.178,7.924a7.926,7.926,0,0,1-7.924-7.924,8.034,8.034,0,0,1,7.924-7.924,7.924,7.924,0,1,1,0,15.848Zm51.671,4.787a17.994,17.994,0,0,1,.5,4.292,21.041,21.041,0,0,1-38.464,11.886l-4.953-6.934a4.145,4.145,0,1,1,6.768-4.787l5.118,6.934a12.959,12.959,0,0,0,10.73,5.778,12.753,12.753,0,0,0,12.711-12.877,14.449,14.449,0,0,0-.33-2.641l-9.74-52.166A25.1,25.1,0,0,0,112.3,61.014h-.5l-.5-.165H47.922a24.97,24.97,0,0,0-24.6,20.8l-9.74,52.166a12.639,12.639,0,0,0,12.381,15.518,12.7,12.7,0,0,0,10.565-5.613l4.787-6.6a4.145,4.145,0,0,1,6.768,4.787l-4.622,6.438a20.8,20.8,0,0,1-17.334,9.245A21.388,21.388,0,0,1,5,136.457a17.994,17.994,0,0,1,.5-4.292l9.74-52A33.022,33.022,0,0,1,47.922,52.595H75V47.147A17.332,17.332,0,0,1,92.329,29.813H123.7a9.08,9.08,0,0,0,0-18.159H34.88a4.087,4.087,0,0,1-4.127-4.127A4.087,4.087,0,0,1,34.88,3.4h88.65a17.334,17.334,0,1,1,0,34.668H92.164a9.16,9.16,0,0,0-9.08,9.08v5.448h29.055l.66.165a32.728,32.728,0,0,1,30.54,27.4ZM94.805,86.272a5.019,5.019,0,1,1,7.1,0A5.306,5.306,0,0,1,94.805,86.272Zm20.47,0a5.019,5.019,0,1,1,7.1,0A5.136,5.136,0,0,1,115.276,86.272ZM54.525,71.579v6.273H60.8a4.127,4.127,0,1,1,0,8.254H54.525V92.38a4.127,4.127,0,1,1-8.254,0V86.107H40a4.127,4.127,0,1,1,0-8.254h6.273V71.579A4.087,4.087,0,0,1,50.4,67.452,4.193,4.193,0,0,1,54.525,71.579Zm50.516,17.829a5.019,5.019,0,1,1,0,7.1A4.982,4.982,0,0,1,105.041,89.409Zm0-13.372a5.019,5.019,0,1,1,7.1,0A4.982,4.982,0,0,1,105.041,76.037Z" transform="translate(1437.425 -326)" fill="#00174e"/>
    </g>
  </g>
</svg>